<?xml version="1.0" encoding="utf-8"?>
<!-- (c) Philip Daubmeier 2026  -->
<!DOCTYPE svg PUBLIC "-//W3C//DTD SVG 1.1//EN" "http://www.w3.org/Graphics/SVG/1.1/DTD/svg11.dtd">
<svg version="1.1" id="Ebene_1" xmlns="http://www.w3.org/2000/svg" xmlns:xlink="http://www.w3.org/1999/xlink" x="0px" y="0px"
	 width="533px" height="103px" viewBox="30.445 33.54 533 103" enable-background="new 30.445 33.54 533 103" xml:space="preserve">
<path d="M188.118,106.458V40.063h24.886c12.743,0,20.008,8.959,20.008,19.41c0,10.452-7.367,19.412-20.008,19.412h-19.211v27.574
	H188.118z M227.039,59.473c0-8.361-5.873-14.234-14.632-14.234h-18.615v28.469h18.615C221.166,73.708,227.039,67.835,227.039,59.473
	z"/>
<path d="M243.365,46.832c0-2.189,1.891-3.881,3.981-3.881c2.189,0,3.98,1.691,3.98,3.881c0,2.19-1.793,3.982-3.98,3.982
	C245.256,50.814,243.365,49.022,243.365,46.832z M244.758,106.458v-48.08h5.176v48.08H244.758z"/>
<path d="M297.812,106.458l-15.928-21.202l-16.025,21.202h-6.172l19.014-24.688l-17.918-23.392h6.172l14.93,19.809l14.832-19.809
	h6.173l-17.918,23.392l19.013,24.688H297.812z"/>
<path d="M307.069,82.37c0-13.937,9.856-25.185,23.193-25.185c14.635,0,22.698,11.647,22.698,25.483v1.395h-40.216
	c0.499,10.45,7.466,19.113,18.813,19.113c6.074,0,11.646-2.292,15.728-6.671l2.688,3.384c-4.778,4.979-10.852,7.766-18.813,7.766
	C317.125,107.652,307.069,97.201,307.069,82.37z M330.164,61.664c-11.346,0-17.021,9.955-17.42,18.316h34.939
	C347.582,71.817,342.209,61.664,330.164,61.664z"/>
<path d="M366.293,106.458V40.063h5.178v66.396H366.293z"/>
<path d="M387.795,106.458V40.063h24.887c12.741,0,20.008,8.959,20.008,19.41c0,10.452-7.367,19.412-20.008,19.412h-19.212v27.574
	H387.795z M426.716,59.473c0-8.361-5.872-14.234-14.632-14.234h-18.614v28.469h18.614C420.844,73.708,426.716,67.835,426.716,59.473
	z"/>
<path d="M473.005,106.458v-5.674c-4.281,4.679-9.657,6.867-16.326,6.867c-8.262,0-16.823-5.674-16.823-16.025
	c0-10.453,8.461-15.927,16.823-15.927c6.669,0,12.144,2.189,16.326,6.868v-9.755c0-7.167-5.775-11.049-12.941-11.049
	c-5.972,0-10.652,2.09-15.03,7.067l-2.888-3.583c4.978-5.377,10.551-8.064,18.515-8.064c9.754,0,17.519,4.68,17.519,15.429v33.847
	H473.005z M473.005,97v-10.55c-3.386-4.38-8.761-6.669-14.534-6.669c-7.964,0-13.139,5.076-13.139,11.943
	c0,6.771,5.177,11.847,13.139,11.847C464.244,103.572,469.619,101.384,473.005,97z"/>
<path d="M490.123,100.086l3.087-3.88c3.085,3.88,8.76,7.066,15.527,7.066c8.063,0,12.841-4.181,12.841-9.755
	c0-13.139-30.36-5.772-30.36-22.995c0-7.365,6.27-13.339,17.121-13.339c8.262,0,13.736,3.185,17.223,7.07l-2.888,3.684
	c-2.788-3.783-7.964-6.372-14.334-6.372c-7.465,0-12.045,3.782-12.045,8.759c0,12.045,30.362,4.68,30.362,23.195
	c0,7.764-5.974,14.134-18.019,14.134C500.874,107.652,494.901,105.363,490.123,100.086z"/>
<path d="M540.987,97.201V62.959h-7.963V58.38h7.963V45.241h5.275V58.38h9.756v4.579h-9.756v33.447c0,3.881,1.595,6.569,4.978,6.569
	c2.292,0,4.281-1.096,5.378-2.289l1.988,3.981c-1.892,1.791-4.18,2.986-8.161,2.986C544.075,107.652,540.987,103.771,540.987,97.201
	z"/>
<path d="M195.834,117.258l6.26,14.844h-2.347l-1.377-3.238h-7.582l-1.377,3.238h-2.375l6.288-14.844H195.834z M194.593,119.472
	L191.436,127h6.289L194.593,119.472z"/>
<path d="M221.345,124.681c0-4.612,3.508-7.744,7.933-7.744c2.616,0,4.587,1.134,5.963,2.726l-1.647,1.105
	c-0.972-1.161-2.536-1.94-4.316-1.94c-3.265,0-5.748,2.427-5.748,5.854c0,3.4,2.482,5.885,5.748,5.885
	c1.808,0,3.212-0.809,3.966-1.54v-2.886h-4.588v-1.782h6.691v5.476c-1.457,1.567-3.589,2.593-6.071,2.593
	C224.853,132.426,221.345,129.294,221.345,124.681z"/>
<path d="M253.385,132.102l-3.887-5.773h-2.967v5.773h-2.134V117.26h6.368c3.132,0,4.911,1.996,4.911,4.535
	c0,2.563-1.673,4.209-4.021,4.371l4.21,5.938h-2.481V132.102z M253.49,121.793c0-1.565-1.025-2.673-2.913-2.673h-4.048v5.372h4.048
	C252.521,124.493,253.49,123.361,253.49,121.793z"/>
<path d="M264.509,132.102V117.26h2.132v14.842H264.509z"/>
<path d="M276.088,132.102V117.26h5.398c4.855,0,7.904,3.239,7.904,7.448c0,4.211-3.049,7.396-7.904,7.396h-5.398V132.102z
	 M287.207,124.708c0-3.104-1.971-5.586-5.721-5.586h-3.265v11.117h3.265C285.183,130.24,287.207,127.758,287.207,124.708z"/>
<path d="M310.478,132.102V117.26h6.989c2.752,0,4.425,1.567,4.425,3.806c0,1.784-1.187,2.994-2.536,3.373
	c1.591,0.378,2.862,1.918,2.862,3.643c0,2.402-1.701,4.021-4.588,4.021H310.478z M319.708,121.361c0-1.35-0.89-2.238-2.485-2.238
	h-4.613v4.453h4.613C318.844,123.576,319.708,122.604,319.708,121.361z M320.003,127.865c0-1.266-0.917-2.427-2.672-2.427h-4.722
	v4.804h4.722C319.007,130.24,320.003,129.323,320.003,127.865z"/>
<path d="M337.794,117.258l6.261,14.844h-2.347l-1.377-3.238h-7.582l-1.378,3.238h-2.374l6.288-14.844H337.794z M336.552,119.472
	L333.395,127h6.288L336.552,119.472z"/>
<path d="M350.51,130.107l1.134-1.593c0.997,1.08,2.75,2.077,4.856,2.077c2.591,0,3.615-1.215,3.615-2.538
	c0-3.777-9.118-1.538-9.118-6.908c0-2.455,2.318-4.208,5.369-4.208c2.427,0,4.264,0.808,5.56,2.131l-1.106,1.484
	c-1.131-1.214-2.832-1.782-4.452-1.782c-1.861,0-3.183,0.973-3.183,2.349c0,3.212,9.096,1.241,9.096,6.854
	c0,2.509-1.862,4.451-5.83,4.451C353.83,132.426,351.724,131.427,350.51,130.107z"/>
<path d="M370.675,132.102V117.26h10.31v1.862h-8.177v4.453h8.04v1.86h-8.04v4.804h8.177v1.862H370.675L370.675,132.102z"/>
<path d="M389.814,132.102V117.26h5.396c4.857,0,7.906,3.239,7.906,7.448c0,4.211-3.051,7.396-7.906,7.396h-5.396V132.102z
	 M400.931,124.708c0-3.104-1.972-5.586-5.721-5.586h-3.266v11.117h3.266C398.907,130.24,400.931,127.758,400.931,124.708z"/>
<path d="M424.203,132.102V117.26h2.133v12.981h7.178v1.86H424.203z"/>
<path d="M441.965,132.102V117.26h2.132v14.842H441.965z"/>
<path d="M453.547,132.102V117.26h10.308v1.862h-8.177v4.453h8.043v1.86h-8.043v6.666H453.547L453.547,132.102z"/>
<path d="M472.198,132.102V117.26h10.309v1.862h-8.178v4.453h8.042v1.86h-8.042v4.804h8.178v1.862H472.198L472.198,132.102z"/>
<path d="M503.726,132.102V117.26h2.133v12.981h7.178v1.86H503.726z"/>
<path d="M520.733,124.681c0-4.37,3.049-7.744,7.664-7.744c4.612,0,7.662,3.374,7.662,7.744c0,4.373-3.05,7.745-7.662,7.745
	C523.782,132.426,520.733,129.052,520.733,124.681z M533.901,124.681c0-3.37-2.157-5.882-5.504-5.882
	c-3.349,0-5.506,2.508-5.506,5.882c0,3.348,2.157,5.885,5.506,5.885C531.744,130.566,533.901,128.029,533.901,124.681z"/>
<path d="M544.002,124.681c0-4.612,3.509-7.744,7.934-7.744c2.617,0,4.588,1.134,5.964,2.726l-1.646,1.105
	c-0.974-1.161-2.539-1.94-4.318-1.94c-3.264,0-5.748,2.427-5.748,5.854c0,3.4,2.484,5.885,5.748,5.885
	c1.809,0,3.21-0.809,3.966-1.54v-2.886h-4.587v-1.782h6.693v5.476c-1.457,1.567-3.588,2.593-6.072,2.593
	C547.51,132.426,544.002,129.294,544.002,124.681z"/>
<path fill="#22398E" d="M103.947,128.937c0,1.565-1.269,2.836-2.834,2.836H87.115c-1.565,0-2.834-1.271-2.834-2.836V114.94
	c0-1.566,1.269-2.836,2.834-2.836h13.998c1.565,0,2.834,1.27,2.834,2.836V128.937z"/>
<path fill="#2E62AC" d="M79.947,128.937c0,1.565-1.269,2.836-2.834,2.836H63.115c-1.565,0-2.834-1.271-2.834-2.836V114.94
	c0-1.566,1.269-2.836,2.834-2.836h13.998c1.565,0,2.834,1.27,2.834,2.836V128.937z"/>
<path fill="#1C98BF" d="M55.947,128.937c0,1.565-1.269,2.836-2.834,2.836H39.115c-1.565,0-2.834-1.271-2.834-2.836V114.94
	c0-1.566,1.269-2.836,2.834-2.836h13.998c1.565,0,2.834,1.27,2.834,2.836V128.937z"/>
<path fill="#22398E" d="M127.946,128.937c0,1.565-1.269,2.836-2.834,2.836h-13.998c-1.565,0-2.834-1.271-2.834-2.836V114.94
	c0-1.566,1.269-2.836,2.834-2.836h13.998c1.565,0,2.834,1.27,2.834,2.836V128.937z"/>
<path fill="#A3BC49" d="M39.116,83.772c-1.565,0-2.835-1.27-2.835-2.834V66.94c0-1.564,1.27-2.834,2.835-2.834h13.997
	c1.565,0,2.835,1.27,2.835,2.834v13.998c0,1.564-1.27,2.834-2.835,2.834H39.116z"/>
<path fill="#C4CE41" d="M39.116,59.772c-1.565,0-2.835-1.268-2.835-2.834V42.94c0-1.565,1.27-2.834,2.835-2.834h13.997
	c1.565,0,2.835,1.269,2.835,2.834v13.998c0,1.566-1.27,2.834-2.835,2.834H39.116z"/>
<path fill="#29AD77" d="M39.116,107.772c-1.565,0-2.835-1.27-2.835-2.834V90.94c0-1.566,1.27-2.836,2.835-2.836h13.997
	c1.565,0,2.835,1.27,2.835,2.836v13.998c0,1.564-1.27,2.834-2.835,2.834H39.116z"/>
<path fill="#2E62AC" d="M103.948,104.937c0,1.565-1.27,2.836-2.834,2.836H87.115c-1.565,0-2.834-1.271-2.834-2.836V90.94
	c0-1.566,1.269-2.836,2.834-2.836h13.999c1.564,0,2.834,1.27,2.834,2.836V104.937z"/>
<path fill="#1C98BF" d="M79.947,104.937c0,1.565-1.269,2.836-2.834,2.836H63.115c-1.565,0-2.834-1.271-2.834-2.836V90.94
	c0-1.566,1.269-2.836,2.834-2.836h13.998c1.565,0,2.834,1.27,2.834,2.836V104.937z"/>
<path fill="#22398E" d="M151.947,104.937c0,1.565-1.27,2.836-2.834,2.836h-13.999c-1.565,0-2.834-1.271-2.834-2.836V90.94
	c0-1.566,1.269-2.836,2.834-2.836h13.999c1.564,0,2.834,1.27,2.834,2.836V104.937z"/>
<path fill="#22398E" d="M127.947,104.937c0,1.565-1.269,2.836-2.834,2.836h-13.998c-1.565,0-2.835-1.271-2.835-2.836V90.94
	c0-1.566,1.27-2.836,2.835-2.836h13.998c1.565,0,2.834,1.27,2.834,2.836V104.937z"/>
<path fill="#1C98BF" d="M103.948,80.938c0,1.564-1.27,2.834-2.834,2.834H87.115c-1.565,0-2.834-1.27-2.834-2.834V66.94
	c0-1.564,1.269-2.834,2.834-2.834h13.999c1.564,0,2.834,1.27,2.834,2.834V80.938z"/>
<path fill="#29AD77" d="M79.947,80.938c0,1.564-1.269,2.834-2.834,2.834H63.115c-1.565,0-2.834-1.27-2.834-2.834V66.94
	c0-1.564,1.269-2.834,2.834-2.834h13.998c1.565,0,2.834,1.27,2.834,2.834V80.938z"/>
<path fill="#2E62AC" d="M151.947,80.938c0,1.564-1.27,2.834-2.834,2.834h-13.999c-1.565,0-2.834-1.27-2.834-2.834V66.94
	c0-1.564,1.269-2.834,2.834-2.834h13.999c1.564,0,2.834,1.27,2.834,2.834V80.938z"/>
<path fill="#2E62AC" d="M127.947,80.938c0,1.564-1.269,2.834-2.834,2.834h-13.998c-1.565,0-2.835-1.27-2.835-2.834V66.94
	c0-1.564,1.27-2.834,2.835-2.834h13.998c1.565,0,2.834,1.27,2.834,2.834V80.938z"/>
<path fill="#6FA443" d="M103.947,56.938c0,1.564-1.27,2.834-2.834,2.834H87.115c-1.565,0-2.834-1.27-2.834-2.834V42.94
	c0-1.564,1.269-2.834,2.834-2.834h13.999c1.564,0,2.834,1.27,2.834,2.834L103.947,56.938L103.947,56.938z"/>
<path fill="#79AC44" d="M79.947,56.938c0,1.564-1.269,2.834-2.834,2.834H63.115c-1.565,0-2.834-1.27-2.834-2.834V42.94
	c0-1.564,1.269-2.834,2.834-2.834h13.998c1.565,0,2.834,1.27,2.834,2.834V56.938z"/>
<path fill="#4B773A" d="M151.946,56.938c0,1.564-1.269,2.834-2.834,2.834h-13.998c-1.565,0-2.834-1.27-2.834-2.834V42.94
	c0-1.564,1.269-2.834,2.834-2.834h13.998c1.565,0,2.834,1.27,2.834,2.834V56.938z"/>
<path fill="#4B773A" d="M127.946,56.938c0,1.564-1.269,2.834-2.834,2.834h-13.998c-1.565,0-2.835-1.27-2.835-2.834V42.94
	c0-1.564,1.27-2.834,2.835-2.834h13.998c1.565,0,2.834,1.27,2.834,2.834V56.938z"/>
</svg>
