<?xml version="1.0" encoding="utf-8"?>
<!-- (c) Philip Daubmeier 2026  -->
<!DOCTYPE svg PUBLIC "-//W3C//DTD SVG 1.1//EN" "http://www.w3.org/Graphics/SVG/1.1/DTD/svg11.dtd">
<svg version="1.1" id="Ebene_1" xmlns="http://www.w3.org/2000/svg" xmlns:xlink="http://www.w3.org/1999/xlink" x="0px" y="0px"
	 width="481.89px" height="170.079px" viewBox="0 0 481.89 170.079" enable-background="new 0 0 481.89 170.079"
	 xml:space="preserve">
<path fill="#161616" d="M474.113,160.75c0,1.76-1.254,3.189-2.8,3.189H10.911c-1.545,0-2.798-1.429-2.798-3.189V11.128
	c0-1.76,1.253-3.189,2.798-3.189h460.402c1.546,0,2.8,1.429,2.8,3.189V160.75z"/>
<path fill="#FFFFFF" d="M182.502,103.125V59.198h16.464c8.43,0,13.237,5.928,13.237,12.842c0,6.915-4.874,12.843-13.237,12.843
	h-12.71v18.242H182.502z M208.252,72.04c0-5.531-3.886-9.417-9.681-9.417h-12.315v18.835h12.315
	C204.366,81.458,208.252,77.572,208.252,72.04z"/>
<path fill="#FFFFFF" d="M219.052,63.677c0-1.449,1.251-2.568,2.634-2.568c1.449,0,2.634,1.119,2.634,2.568s-1.186,2.634-2.634,2.634
	C220.303,66.311,219.052,65.126,219.052,63.677z M219.974,103.125V71.316h3.424v31.809H219.974z"/>
<path fill="#FFFFFF" d="M255.074,103.125l-10.537-14.027l-10.603,14.027h-4.083l12.579-16.333l-11.854-15.476h4.083l9.878,13.105
	l9.813-13.105h4.083l-11.854,15.476l12.579,16.333H255.074z"/>
<path fill="#FFFFFF" d="M261.199,87.188c0-9.22,6.52-16.662,15.345-16.662c9.681,0,15.016,7.706,15.016,16.859v0.923h-26.606
	c0.33,6.914,4.939,12.645,12.447,12.645c4.018,0,7.705-1.516,10.405-4.413l1.778,2.239c-3.161,3.293-7.179,5.137-12.447,5.137
	C267.851,103.915,261.199,97,261.199,87.188z M276.478,73.489c-7.507,0-11.261,6.586-11.525,12.118h23.116
	C288.002,80.207,284.447,73.489,276.478,73.489z"/>
<path fill="#FFFFFF" d="M300.381,103.125V59.198h3.425v43.927H300.381z"/>
<path fill="#FFFFFF" d="M314.606,103.125V59.198h16.465c8.43,0,13.237,5.928,13.237,12.842c0,6.915-4.874,12.843-13.237,12.843
	H318.36v18.242H314.606z M340.356,72.04c0-5.531-3.885-9.417-9.681-9.417H318.36v18.835h12.315
	C336.471,81.458,340.356,77.572,340.356,72.04z"/>
<path fill="#FFFFFF" d="M370.98,103.125v-3.754c-2.832,3.096-6.389,4.544-10.801,4.544c-5.466,0-11.13-3.754-11.13-10.603
	c0-6.915,5.598-10.537,11.13-10.537c4.412,0,8.034,1.448,10.801,4.544v-6.454c0-4.741-3.82-7.31-8.562-7.31
	c-3.951,0-7.047,1.383-9.944,4.676l-1.91-2.371c3.293-3.557,6.98-5.335,12.25-5.335c6.453,0,11.59,3.096,11.59,10.208v22.392H370.98
	z M370.98,96.868v-6.98c-2.239-2.897-5.796-4.412-9.615-4.412c-5.269,0-8.693,3.358-8.693,7.902c0,4.479,3.425,7.837,8.693,7.837
	C365.184,101.215,368.741,99.767,370.98,96.868z"/>
<path fill="#FFFFFF" d="M382.306,98.91l2.042-2.568c2.041,2.568,5.795,4.676,10.273,4.676c5.334,0,8.495-2.766,8.495-6.454
	c0-8.693-20.086-3.819-20.086-15.213c0-4.873,4.148-8.825,11.327-8.825c5.466,0,9.089,2.107,11.394,4.677l-1.91,2.437
	c-1.844-2.503-5.269-4.215-9.483-4.215c-4.939,0-7.969,2.502-7.969,5.795c0,7.969,20.087,3.096,20.087,15.345
	c0,5.137-3.952,9.352-11.921,9.352C389.418,103.915,385.467,102.4,382.306,98.91z"/>
<path fill="#FFFFFF" d="M415.958,97V74.346h-5.269v-3.029h5.269v-8.693h3.49v8.693h6.454v3.029h-6.454v22.128
	c0,2.568,1.054,4.347,3.293,4.347c1.515,0,2.832-0.725,3.557-1.515l1.316,2.634c-1.251,1.186-2.766,1.976-5.4,1.976
	C418,103.915,415.958,101.347,415.958,97z"/>
<path fill="#FFFFFF" d="M187.606,110.271l4.142,9.819h-1.553l-0.911-2.143h-5.017l-0.911,2.143h-1.571l4.16-9.819H187.606z
	 M186.785,111.735l-2.088,4.981h4.16L186.785,111.735z"/>
<path fill="#FFFFFF" d="M204.484,115.182c0-3.053,2.321-5.124,5.249-5.124c1.731,0,3.035,0.75,3.945,1.803l-1.089,0.732
	c-0.643-0.768-1.678-1.285-2.856-1.285c-2.16,0-3.803,1.606-3.803,3.874c0,2.249,1.643,3.892,3.803,3.892
	c1.196,0,2.125-0.535,2.624-1.018v-1.91h-3.035v-1.179h4.427v3.624c-0.964,1.036-2.374,1.714-4.017,1.714
	C206.805,120.305,204.484,118.234,204.484,115.182z"/>
<path fill="#FFFFFF" d="M225.681,120.091l-2.571-3.82h-1.963v3.82h-1.411v-9.819h4.213c2.071,0,3.249,1.321,3.249,3
	c0,1.695-1.107,2.784-2.66,2.892l2.785,3.928H225.681z M225.752,113.271c0-1.036-0.679-1.768-1.928-1.768h-2.678v3.553h2.678
	C225.11,115.057,225.752,114.307,225.752,113.271z"/>
<path fill="#FFFFFF" d="M233.041,120.091v-9.819h1.411v9.819H233.041z"/>
<path fill="#FFFFFF" d="M240.702,120.091v-9.819h3.571c3.213,0,5.23,2.143,5.23,4.928s-2.017,4.892-5.23,4.892H240.702z
	 M248.058,115.199c0-2.053-1.303-3.695-3.785-3.695h-2.16v7.355h2.16C246.719,118.859,248.058,117.217,248.058,115.199z"/>
<path fill="#FFFFFF" d="M263.454,120.091v-9.819h4.624c1.821,0,2.928,1.036,2.928,2.518c0,1.179-0.786,1.981-1.678,2.231
	c1.053,0.25,1.893,1.268,1.893,2.41c0,1.589-1.125,2.66-3.035,2.66H263.454z M269.56,112.985c0-0.893-0.589-1.481-1.643-1.481
	h-3.053v2.945h3.053C268.989,114.449,269.56,113.807,269.56,112.985z M269.756,117.288c0-0.839-0.607-1.606-1.768-1.606h-3.124
	v3.178h3.124C269.096,118.859,269.756,118.252,269.756,117.288z"/>
<path fill="#FFFFFF" d="M281.526,110.271l4.142,9.819h-1.553l-0.91-2.143h-5.017l-0.911,2.143h-1.571l4.16-9.819H281.526z
	 M280.705,111.735l-2.089,4.981h4.16L280.705,111.735z"/>
<path fill="#FFFFFF" d="M289.939,118.77l0.75-1.053c0.66,0.714,1.82,1.374,3.213,1.374c1.714,0,2.393-0.803,2.393-1.678
	c0-2.5-6.034-1.018-6.034-4.57c0-1.625,1.535-2.785,3.553-2.785c1.606,0,2.82,0.535,3.678,1.41l-0.732,0.982
	c-0.749-0.804-1.874-1.179-2.945-1.179c-1.231,0-2.106,0.643-2.106,1.554c0,2.124,6.017,0.82,6.017,4.534
	c0,1.66-1.232,2.945-3.856,2.945C292.135,120.305,290.743,119.645,289.939,118.77z"/>
<path fill="#FFFFFF" d="M303.28,120.091v-9.819h6.82v1.232h-5.41v2.945h5.32v1.232h-5.32v3.178h5.41v1.231H303.28z"/>
<path fill="#FFFFFF" d="M315.942,120.091v-9.819h3.57c3.214,0,5.231,2.143,5.231,4.928s-2.018,4.892-5.231,4.892H315.942z
	 M323.297,115.199c0-2.053-1.304-3.695-3.785-3.695h-2.16v7.355h2.16C321.958,118.859,323.297,117.217,323.297,115.199z"/>
<path fill="#FFFFFF" d="M338.694,120.091v-9.819h1.41v8.588h4.749v1.231H338.694z"/>
<path fill="#FFFFFF" d="M350.445,120.091v-9.819h1.41v9.819H350.445z"/>
<path fill="#FFFFFF" d="M358.107,120.091v-9.819h6.82v1.232h-5.41v2.945h5.32v1.232h-5.32v4.409H358.107z"/>
<path fill="#FFFFFF" d="M370.447,120.091v-9.819h6.82v1.232h-5.41v2.945h5.32v1.232h-5.32v3.178h5.41v1.231H370.447z"/>
<path fill="#FFFFFF" d="M391.306,120.091v-9.819h1.41v8.588h4.749v1.231H391.306z"/>
<path fill="#FFFFFF" d="M402.557,115.182c0-2.893,2.018-5.124,5.07-5.124s5.07,2.231,5.07,5.124c0,2.892-2.018,5.123-5.07,5.123
	S402.557,118.073,402.557,115.182z M411.269,115.182c0-2.231-1.428-3.893-3.642-3.893s-3.642,1.661-3.642,3.893
	c0,2.214,1.428,3.892,3.642,3.892S411.269,117.396,411.269,115.182z"/>
<path fill="#FFFFFF" d="M417.952,115.182c0-3.053,2.321-5.124,5.249-5.124c1.731,0,3.035,0.75,3.945,1.803l-1.089,0.732
	c-0.643-0.768-1.679-1.285-2.856-1.285c-2.16,0-3.803,1.606-3.803,3.874c0,2.249,1.643,3.892,3.803,3.892
	c1.196,0,2.124-0.535,2.624-1.018v-1.91h-3.035v-1.179h4.428v3.624c-0.964,1.036-2.374,1.714-4.017,1.714
	C420.273,120.305,417.952,118.234,417.952,115.182z"/>
<path fill="#22398E" d="M103.947,128.937c0,1.566-1.269,2.836-2.834,2.836H87.115c-1.565,0-2.834-1.27-2.834-2.836V114.94
	c0-1.566,1.269-2.836,2.834-2.836h13.998c1.565,0,2.834,1.27,2.834,2.836V128.937z"/>
<path fill="#2E62AC" d="M79.947,128.937c0,1.566-1.269,2.836-2.834,2.836H63.115c-1.565,0-2.834-1.27-2.834-2.836V114.94
	c0-1.566,1.269-2.836,2.834-2.836h13.998c1.565,0,2.834,1.27,2.834,2.836V128.937z"/>
<path fill="#1C98BF" d="M55.947,128.937c0,1.566-1.269,2.836-2.834,2.836H39.115c-1.565,0-2.834-1.27-2.834-2.836V114.94
	c0-1.566,1.269-2.836,2.834-2.836h13.998c1.565,0,2.834,1.27,2.834,2.836V128.937z"/>
<path fill="#22398E" d="M127.946,128.937c0,1.566-1.269,2.836-2.834,2.836h-13.998c-1.565,0-2.834-1.27-2.834-2.836V114.94
	c0-1.566,1.269-2.836,2.834-2.836h13.998c1.565,0,2.834,1.27,2.834,2.836V128.937z"/>
<path fill="#A3BC49" d="M39.116,83.772c-1.565,0-2.835-1.27-2.835-2.834V66.94c0-1.564,1.27-2.834,2.835-2.834h13.997
	c1.565,0,2.835,1.27,2.835,2.834v13.998c0,1.564-1.27,2.834-2.835,2.834H39.116z"/>
<path fill="#C4CE41" d="M39.116,59.772c-1.565,0-2.835-1.268-2.835-2.834V42.94c0-1.565,1.27-2.834,2.835-2.834h13.997
	c1.565,0,2.835,1.269,2.835,2.834v13.998c0,1.566-1.27,2.834-2.835,2.834H39.116z"/>
<path fill="#29AD77" d="M39.116,107.772c-1.565,0-2.835-1.27-2.835-2.834V90.94c0-1.566,1.27-2.836,2.835-2.836h13.997
	c1.565,0,2.835,1.27,2.835,2.836v13.998c0,1.564-1.27,2.834-2.835,2.834H39.116z"/>
<path fill="#2E62AC" d="M103.948,104.937c0,1.566-1.27,2.836-2.834,2.836H87.115c-1.565,0-2.834-1.27-2.834-2.836V90.94
	c0-1.566,1.269-2.836,2.834-2.836h13.999c1.564,0,2.834,1.27,2.834,2.836V104.937z"/>
<path fill="#1C98BF" d="M79.947,104.937c0,1.566-1.269,2.836-2.834,2.836H63.115c-1.565,0-2.834-1.27-2.834-2.836V90.94
	c0-1.566,1.269-2.836,2.834-2.836h13.998c1.565,0,2.834,1.27,2.834,2.836V104.937z"/>
<path fill="#22398E" d="M151.947,104.937c0,1.566-1.27,2.836-2.834,2.836h-13.999c-1.565,0-2.834-1.27-2.834-2.836V90.94
	c0-1.566,1.269-2.836,2.834-2.836h13.999c1.564,0,2.834,1.27,2.834,2.836V104.937z"/>
<path fill="#22398E" d="M127.947,104.937c0,1.566-1.269,2.836-2.834,2.836h-13.998c-1.565,0-2.835-1.27-2.835-2.836V90.94
	c0-1.566,1.27-2.836,2.835-2.836h13.998c1.565,0,2.834,1.27,2.834,2.836V104.937z"/>
<path fill="#1C98BF" d="M103.948,80.938c0,1.564-1.27,2.834-2.834,2.834H87.115c-1.565,0-2.834-1.27-2.834-2.834V66.94
	c0-1.564,1.269-2.834,2.834-2.834h13.999c1.564,0,2.834,1.27,2.834,2.834V80.938z"/>
<path fill="#29AD77" d="M79.947,80.938c0,1.564-1.269,2.834-2.834,2.834H63.115c-1.565,0-2.834-1.27-2.834-2.834V66.94
	c0-1.564,1.269-2.834,2.834-2.834h13.998c1.565,0,2.834,1.27,2.834,2.834V80.938z"/>
<path fill="#2E62AC" d="M151.947,80.938c0,1.564-1.27,2.834-2.834,2.834h-13.999c-1.565,0-2.834-1.27-2.834-2.834V66.94
	c0-1.564,1.269-2.834,2.834-2.834h13.999c1.564,0,2.834,1.27,2.834,2.834V80.938z"/>
<path fill="#2E62AC" d="M127.947,80.938c0,1.564-1.269,2.834-2.834,2.834h-13.998c-1.565,0-2.835-1.27-2.835-2.834V66.94
	c0-1.564,1.27-2.834,2.835-2.834h13.998c1.565,0,2.834,1.27,2.834,2.834V80.938z"/>
<path fill="#6FA443" d="M103.947,56.938c0,1.564-1.27,2.834-2.834,2.834H87.115c-1.565,0-2.834-1.27-2.834-2.834V42.94
	c0-1.564,1.269-2.834,2.834-2.834h13.999c1.564,0,2.834,1.27,2.834,2.834V56.938z"/>
<path fill="#79AC44" d="M79.947,56.938c0,1.564-1.269,2.834-2.834,2.834H63.115c-1.565,0-2.834-1.27-2.834-2.834V42.94
	c0-1.564,1.269-2.834,2.834-2.834h13.998c1.565,0,2.834,1.27,2.834,2.834V56.938z"/>
<path fill="#4B773A" d="M151.946,56.938c0,1.564-1.269,2.834-2.834,2.834h-13.998c-1.565,0-2.834-1.27-2.834-2.834V42.94
	c0-1.564,1.269-2.834,2.834-2.834h13.998c1.565,0,2.834,1.27,2.834,2.834V56.938z"/>
<path fill="#4B773A" d="M127.946,56.938c0,1.564-1.269,2.834-2.834,2.834h-13.998c-1.565,0-2.835-1.27-2.835-2.834V42.94
	c0-1.564,1.27-2.834,2.835-2.834h13.998c1.565,0,2.834,1.27,2.834,2.834V56.938z"/>
</svg>
